<?xml version="1.0" encoding="utf-8"?>
<svg viewBox="0 0 500 500" xmlns="http://www.w3.org/2000/svg" xmlns:bx="https://boxy-svg.com">
  <g transform="matrix(0, 1, -1, 0, 498.204346, -11.990898)">
    <path d="M 462.343 441.025 C 472.701 453.663 465.446 473.036 449.285 475.896 C 441.864 477.209 434.357 474.487 429.539 468.734 L 429.562 468.715 L 291.513 307.475 L 324.064 279.606 L 462.298 441.063 Z" style="fill: rgba(216, 216, 216, 0); stroke-width: 9px; stroke: rgb(0, 0, 0);"/>
    <path d="M 486 392 m -156.649 0 a 156.649 162.289 0 1 0 313.298 0 a 156.649 162.289 0 1 0 -313.298 0 Z M 486 392 m -143.189 0 a 143.189 148.344 0 0 1 286.378 0 a 143.189 148.344 0 0 1 -286.378 0 Z" style="fill: rgba(0, 0, 0, 0.93);" transform="matrix(-0.737154, -0.675725, 0.675725, -0.737154, 302.577272, 791.824394)" bx:shape="ring 486 392 143.189 148.344 156.649 162.289 1@148d1d07"/>
    <path style="fill: rgb(255, 61, 67);" d="M 140.694 167.948 C 144.704 167.211 148.045 171.284 146.706 175.28 C 146.086 177.13 144.562 178.482 142.706 178.827 L 142.373 177.078 L 141.677 173.355 L 140.694 167.948 Z M 142.695 178.829 L 142.356 177.061 L 140.7 167.942 C 105.197 174.293 79.055 204.565 77.708 240.797 L 88.708 241.307 C 88.705 241.371 88.701 241.435 88.696 241.498 L 88.721 241.499 C 89.816 210.352 112.223 184.397 142.728 178.941 L 142.706 178.827 C 142.703 178.828 142.699 178.828 142.695 178.829 Z M 80.207 245.505 C 78.541 244.481 77.569 242.685 77.657 240.795 L 77.708 240.797 C 77.706 240.85 88.663 241.315 88.663 241.315 C 88.338 245.27 83.74 247.678 80.207 245.505 Z" transform="matrix(0.522702, -0.852516, 0.852516, 0.522702, -122.935297, 194.607103)"/>
    <path d="M 539 503 m -136.32 0 a 136.32 139.743 0 1 0 272.64 0 a 136.32 139.743 0 1 0 -272.64 0 Z M 539 503 m -131.027 0 a 131.027 134.316 0 0 1 262.054 0 a 131.027 134.316 0 0 1 -262.054 0 Z" style="" transform="matrix(0.670219, 0.742163, -0.742163, 0.670219, 219.127124, -561.984949)" bx:shape="ring 539 503 131.027 134.316 136.32 139.743 1@bf3af2fb"/>
  </g>
</svg>