<?xml version="1.0" encoding="utf-8"?>
<svg viewBox="0 0 500 500" xmlns="http://www.w3.org/2000/svg" xmlns:bx="https://boxy-svg.com">
  <g transform="matrix(1.480041, -0.470259, 0.456713, 1.552482, -224.643463, 72.291832)" style="">
    <ellipse style="fill: rgb(123, 123, 123);" cx="196.015" cy="262.099" rx="39.112" ry="6.694" transform="matrix(0.956305, 0.292373, -0.292372, 0.956305, 125.797203, 11.808894)"/>
    <path style="stroke-linecap: round; stroke: rgb(92, 92, 92); fill: rgb(255, 75, 51); stroke-width: 5px; stroke-dashoffset: -36px;" d="M 354.854 255.164 L 349.859 264.299 L 342.863 261.891 C 341.035 264.377 338.93 266.699 336.574 268.816 L 340.837 274.237 L 331.795 280.558 L 326.673 275.738 C 323.793 277.281 320.74 278.568 317.566 279.58 L 318.721 286.074 L 307.424 288.329 L 305.195 282.051 C 301.831 282.345 298.438 282.345 295.068 282.051 L 292.889 288.329 L 281.575 286.072 L 282.68 279.58 C 279.496 278.566 276.432 277.28 273.538 275.737 L 268.456 280.557 L 259.365 274.234 L 263.584 268.814 C 261.213 266.693 259.087 264.375 257.24 261.891 L 250.26 264.297 L 245.194 255.162 L 251.69 251.886 C 250.601 249.081 249.835 246.188 249.402 243.249 L 241.908 242.768 L 241.886 236.579 L 263.5 236.579 C 262.826 254.589 280.151 270.938 302.805 269.458 C 315.773 268.604 327.216 261.769 332.819 251.518 C 335.516 246.587 336.621 241.495 336.4 236.579 L 358.016 236.579 L 358.038 242.772 L 350.55 243.253 C 350.14 246.189 349.396 249.082 348.332 251.888 Z" transform="matrix(0.999824, 0.052763, -0.056676, 0.997185, 14.927539, -15.08792)"/>
    <path style="stroke-linecap: round; stroke: rgb(92, 92, 92); fill: rgb(255, 75, 51); stroke-width: 5px; stroke-dashoffset: -36px;" d="M 256.271 246.876 L 251.309 256.017 L 244.308 253.608 C 242.492 256.096 240.392 258.418 238.045 260.537 L 242.32 265.963 L 233.306 272.29 L 228.174 267.465 C 225.299 269.009 222.254 270.298 219.085 271.31 L 220.256 277.808 L 208.976 280.065 L 206.732 273.783 C 203.368 274.076 199.978 274.076 196.61 273.781 L 194.451 280.065 L 183.138 277.805 L 184.223 271.31 C 181.038 270.296 177.972 269.006 175.077 267.463 L 170.013 272.287 L 160.909 265.959 L 165.111 260.536 C 162.733 258.414 160.602 256.093 158.747 253.605 L 151.783 256.015 L 146.691 246.874 L 153.175 243.595 C 152.077 240.788 151.304 237.892 150.861 234.953 L 143.373 234.472 L 143.33 228.278 L 164.928 228.278 C 164.308 246.3 181.67 262.661 204.303 261.178 C 217.26 260.327 228.673 253.484 234.243 243.229 C 236.921 238.292 238.012 233.196 237.775 228.278 L 259.375 228.278 L 259.418 234.474 L 251.933 234.957 C 251.534 237.895 250.8 240.79 249.745 243.595 Z" transform="matrix(0.997888, 0.090086, -0.096768, 0.993381, 25.02093, -16.458569)"/>
    <path d="M 300 266.14 C 300 293.438 277.614 315.569 250 315.569 C 222.386 315.569 200 293.438 200 266.14 C 200 254.009 200 244.232 218.827 198.044 C 224.646 183.767 243.672 138.433 241.192 159.199 C 238.033 185.651 251.695 208.71 270.27 223.594 C 279.933 231.336 300 245.806 300 266.14 Z" style="fill: rgb(0, 255, 255); stroke: rgb(0, 149, 255); stroke-width: 1.50382px;"/>
    <path style="stroke-linecap: round; stroke-linejoin: round; fill: rgb(255, 255, 255);" transform="matrix(-0.305821, 0, 0, -0.391769, 390.330475, 391.093445)" d="M 325.587 316.218 A 94.43 94.43 0 0 1 424.84 223.694 L 423.79 244.146 A 73.951 73.951 0 0 0 346.062 316.605 Z" bx:shape="pie 420 318 73.951 94.43 271.081 2.938 1@04cea48c"/>
    <circle style="fill: rgb(255, 255, 255);" cx="-33.585" cy="128.236" r="6.472" transform="matrix(-0.523192, 0, 0, -0.617571, 243.041306, 378.703491)"/>
    <circle style="fill: rgb(255, 255, 255);" cx="-33.585" cy="128.236" r="6.472" transform="matrix(-0.485553, 0, 0, -0.617571, 271.309357, 345.882019)"/>
  </g>
  <g style="" transform="matrix(1.578877, 0, 0, 1.583378, -129.387634, -57.626984)">
    <g transform="matrix(0.97426, 0.223745, -0.227126, 0.97426, 39.080509, -36.857979)"/>
    <ellipse style="fill: rgb(216, 216, 216); stroke: rgb(21, 25, 10); stroke-width: 0.63246px;" cx="333.198" cy="103.384" rx="14.958" ry="1.265"/>
    <g transform="matrix(0.063336, 0, 0, -0.053474, 176.6259, 220.293991)" fill="#000000" stroke="none" style="">
      <path d="M 2489.708 3356.442 C 2315.012 3193.631 2237.688 3053.813 2243.734 2911.82 C 2245.166 2876.71 2250.098 2846.261 2260.758 2806.18 C 2272.69 2761.127 2282.396 2735.028 2325.036 2630.63 C 2392.177 2467.198 2413.02 2397.911 2425.271 2298.796 C 2438.635 2190.669 2430.521 2084.718 2399.814 1965.096 C 2392.655 1937.133 2387.404 1914.451 2387.881 1914.451 C 2389.631 1914.451 2426.225 1970.689 2444.363 2000.828 C 2466.637 2038.113 2507.686 2119.207 2520.096 2150.588 C 2541.734 2204.962 2556.054 2256.54 2563.213 2304.388 C 2566.236 2325.205 2566.873 2336.391 2566.873 2372.743 C 2566.714 2423.389 2564.804 2441.41 2553.985 2485.841 C 2541.257 2538.661 2525.188 2580.296 2479.366 2679.101 C 2430.839 2783.809 2411.906 2838.804 2401.087 2907.781 C 2397.269 2932.327 2396.791 2939.784 2396.791 2981.729 C 2396.95 3023.363 2397.428 3031.442 2401.246 3055.988 C 2415.088 3145.472 2440.863 3220.041 2494.004 3325.06 C 2510.868 3358.305 2524.71 3385.648 2524.71 3386.269 C 2524.71 3388.755 2520.096 3384.716 2489.708 3356.442 Z" style="fill: rgba(142, 142, 142, 0.81);"/>
      <path d="M 2527.097 3265.094 C 2478.411 3189.281 2452 3110.362 2448.977 3031.753 C 2445.954 2955.008 2463.615 2879.507 2511.823 2762.992 C 2522.005 2738.446 2539.666 2695.568 2551.281 2667.604 C 2595.829 2559.789 2615.876 2488.016 2622.559 2412.203 C 2629.241 2337.012 2619.854 2257.471 2595.352 2182.591 C 2592.329 2173.581 2590.738 2166.124 2591.534 2166.124 C 2593.92 2166.124 2614.922 2202.476 2631.787 2235.722 C 2672.995 2317.438 2692.087 2391.386 2692.246 2469.063 C 2692.246 2506.037 2689.064 2535.243 2680.632 2574.081 C 2669.017 2626.281 2653.584 2668.847 2605.853 2778.216 C 2574.509 2849.679 2562.418 2879.817 2549.689 2918.034 C 2526.779 2987.322 2516.755 3045.424 2516.755 3110.672 C 2516.755 3162.249 2522.005 3202.952 2535.37 3256.083 C 2539.348 3271.929 2542.371 3285.6 2542.053 3286.221 C 2541.575 3286.843 2534.893 3277.211 2527.097 3265.094 Z" style="fill: rgba(142, 142, 142, 0.81);"/>
      <path d="M 2214.936 3102.594 C 2180.092 3045.735 2154.795 2984.525 2143.817 2930.462 C 2137.453 2899.081 2134.907 2872.671 2134.907 2838.182 C 2134.907 2789.712 2139.203 2755.845 2152.408 2702.093 C 2164.977 2651.137 2179.297 2610.434 2224.164 2498.58 C 2285.26 2346.334 2306.58 2280.153 2320.263 2199.369 C 2330.922 2135.985 2333.468 2061.726 2326.627 2005.177 C 2325.195 1993.06 2324.24 1981.253 2324.558 1979.389 C 2325.513 1973.486 2345.878 2056.133 2351.924 2091.243 C 2367.993 2181.348 2368.948 2270.832 2354.947 2347.266 C 2343.332 2411.582 2323.444 2470.616 2279.532 2573.149 C 2247.712 2647.408 2237.211 2673.819 2225.119 2709.86 C 2202.049 2779.459 2192.98 2834.143 2193.139 2902.499 C 2193.457 2963.398 2199.98 3010.936 2217.959 3080.845 C 2223.05 3101.04 2227.028 3118.129 2226.709 3119.061 C 2226.232 3119.683 2220.982 3112.536 2214.936 3102.594 Z" style="fill: rgba(142, 142, 142, 0.81);"/>
    </g>
    <path d="M 318.05 103.294 C 318.05 103.294 326.75 104.649 333.805 104.649 C 339.814 104.649 348.155 103.294 348.155 103.294 L 348.155 184.276 L 317.694 168.929 L 318.05 103.294 Z" style="stroke: rgb(148, 147, 141); fill: rgb(70, 70, 67); stroke-width: 0px;"/>
    <g transform="matrix(0.978915, -0.202431, 0.205783, 0.978985, -26.662991, 61.842834)">
      <path d="M 371.654 232.536 L 241.825 114.039 L 84.204 176.961 L 79.639 166.071 L 232.135 105.194 L 202.015 77.703 L 202.013 77.705 C 200.699 76.207 200.446 74.443 200.889 72.694 C 201.399 70.679 202.732 69.082 205.172 68.547 C 207.024 68.024 208.87 68.315 210.408 69.346 L 210.407 69.347 L 244.343 100.321 L 284.372 84.342 L 284.351 84.284 C 286.348 83.717 288.144 84.239 289.609 85.395 C 291.289 86.721 292.218 88.614 291.67 91.065 C 291.361 92.993 290.271 94.565 288.607 95.529 L 288.551 95.386 L 254.033 109.165 L 379.799 223.954 Z" style="fill: rgb(70, 70, 67); stroke: rgb(255, 253, 243); stroke-width: 1.89738px;"/>
    </g>
    <circle style="fill: rgb(255, 75, 51); stroke-width: 6.71575px; stroke: rgba(254, 248, 255, 0.7);" transform="matrix(0.296008, 0, 0, 0.269084, 179.958694, -19.861025)" cx="179" cy="510" r="32.526911934581186"/>
  </g>
</svg>